<svg width="1411" height="548" viewBox="0 0 1411 548" fill="none" xmlns="http://www.w3.org/2000/svg">
<rect x="43.4336" y="0.767212" width="1370" height="452" transform="rotate(4 43.4336 0.767212)" fill="#0D0D0D"/>
<rect x="22.3346" y="69.9878" width="1370" height="432" transform="rotate(-1 22.3346 69.9878)" fill="#B7097F"/>
<rect x="32.5" y="54.5" width="1357" height="439" fill="black" stroke="black" stroke-width="7"/>
<path d="M18.6097 39.0835L15.437 52.6588L0.853755 59.4465C-0.273912 59.9627 -0.235686 60.9952 0.681738 61.5114L12.1495 67.8593L9.55017 86.9412C9.41638 87.8973 10.2191 88.49 11.2321 87.4575L26.2549 71.9893L41.7556 74.972C43.6478 75.3353 43.514 74.0543 43.1508 73.3277L35.9261 58.7008L47.241 40.8617C47.9864 39.6762 47.3366 38.9879 46.2471 39.4085L27.6502 46.9036L20.3108 38.5099C19.3743 37.42 18.8009 38.2996 18.6097 39.0835Z" fill="#B7097F"/>
</svg>
