<svg width="44" height="49" viewBox="0 0 44 49" fill="none" xmlns="http://www.w3.org/2000/svg">
<path fill-rule="evenodd" clip-rule="evenodd" d="M4.24892 30C5.67715 38.5131 13.0811 45 22 45C30.919 45 38.3229 38.5131 39.7512 30H43.7972C42.334 40.7311 33.1327 49 22 49C10.8674 49 1.66606 40.7311 0.202881 30H4.24892Z" fill="#B7097F"/>
<path fill-rule="evenodd" clip-rule="evenodd" d="M11.1689 9.75961C11.8539 10.6261 11.7069 11.8838 10.8404 12.5689C6.70306 15.84 4 21.0722 4 27.0008C4 37.0393 11.7065 45 21 45C22.1046 45 23 45.8955 23 47C23 48.1046 22.1046 49 21 49C9.30667 49 0 39.0528 0 27.0008C0 19.8434 3.26714 13.4574 8.35959 9.43114C9.22606 8.74608 10.4838 8.89314 11.1689 9.75961Z" fill="#B7097F"/>
<path fill-rule="evenodd" clip-rule="evenodd" d="M33.7134 10.7723C33.1612 11.7289 31.938 12.0567 30.9814 11.5044C26.9576 9.18125 22.4737 8.50941 18.3618 9.26568C17.2754 9.46548 16.2328 8.74679 16.033 7.66044C15.8332 6.5741 16.5519 5.53147 17.6382 5.33166C22.672 4.40584 28.1231 5.23534 32.9814 8.04028C33.938 8.59257 34.2657 9.81575 33.7134 10.7723Z" fill="#B7097F"/>
<path opacity="0.7" fill-rule="evenodd" clip-rule="evenodd" d="M16.2929 24.7929C16.6834 24.4024 17.3166 24.4024 17.7071 24.7929L22 29.0858L26.2929 24.7929C26.6834 24.4024 27.3166 24.4024 27.7071 24.7929C28.0976 25.1834 28.0976 25.8166 27.7071 26.2071L22.7071 31.2071C22.3166 31.5976 21.6834 31.5976 21.2929 31.2071L16.2929 26.2071C15.9024 25.8166 15.9024 25.1834 16.2929 24.7929Z" fill="white"/>
</svg>
