<svg width="73" height="64" viewBox="0 0 73 64" fill="none" xmlns="http://www.w3.org/2000/svg">
<path d="M8.81552 23.468L8.81552 23.6245L8.86837 23.8183L9.02887 24.4068L-10.2292 39.0494L-10.2559 39.0696L-10.2816 39.0911C-11.0462 39.7282 -11.7347 40.8898 -11.2319 42.1469C-10.7266 43.4101 -9.39888 43.8148 -8.24423 43.8148L-8.23323 43.8148L-8.22223 43.8147L19.218 43.4123L30.2813 59.8879L30.2863 59.8952C30.7141 60.5244 31.2142 61.052 31.8189 61.3685C32.4742 61.7115 33.188 61.7683 33.8493 61.5291C34.4547 61.3101 34.8811 60.8934 35.1577 60.5282C35.4397 60.1557 35.6391 59.7421 35.7654 59.3644C35.7659 59.3631 35.7663 59.3617 35.7668 59.3604L39.3273 48.8444L39.3418 48.8016L39.3537 48.758L39.5913 47.8867L39.7405 47.4391L40.98 43.886L40.9834 43.8762L40.9867 43.8663L42.376 39.6985L68.4777 33.8356L68.4871 33.8335L68.4964 33.8313C69.5524 33.5799 70.8249 32.9055 71.0218 31.5278C71.2299 30.0706 70.084 29.1413 69.1417 28.751L46.0215 18.9785L46.943 5.46308L46.9442 5.44465L46.945 5.4262C46.9719 4.80835 46.899 4.15702 46.5835 3.59044C46.2302 2.95587 45.6556 2.5788 45.0228 2.45827C44.4598 2.35103 43.9355 2.45947 43.555 2.58497C43.1604 2.71514 42.7961 2.90508 42.493 3.09737L27.7055 12.3197L8.67982 5.44494C8.67822 5.44435 8.67662 5.44376 8.67501 5.44317C7.60841 5.05151 6.32894 5.01507 5.38331 5.85562C4.42483 6.70761 4.34611 7.9797 4.65081 9.01568L6.22184 14.3902L6.22437 14.3989L8.81552 23.468Z" stroke="#E84C0A" stroke-width="3" stroke-miterlimit="10"/>
</svg>
