<svg width="93" height="43" viewBox="0 0 93 43" fill="none" xmlns="http://www.w3.org/2000/svg">
<path d="M2.36742 1.0002L1.13992 19.2566L72.4859 24.0537L73.7134 5.79727L2.36742 1.0002Z" fill="black"/>
<path d="M2.2275 0.999956L1 19.2563L72.346 24.0534L73.5735 5.79702L2.2275 0.999956Z" stroke="white" stroke-width="1.5" stroke-miterlimit="22.9256"/>
<path d="M61.1909 14.2247L61.3891 11.0971L60.3238 11.0226C59.0603 10.9481 58.4162 11.4198 58.3419 12.4623C58.2676 13.5297 58.8621 14.0758 60.1256 14.1751L61.1909 14.2247ZM63.1233 19.5865L60.7698 19.4375L61.0175 15.7141L58.1685 19.2638L55.4185 19.09L58.5153 15.6148C57.7225 15.4411 57.1032 15.0439 56.6572 14.3985C56.2113 13.7531 56.0131 13.0084 56.0874 12.1893C56.1617 11.0723 56.5829 10.2283 57.3261 9.65736C58.0446 9.08643 58.9612 8.83821 60.0761 8.91267L63.8418 9.1609L63.1233 19.5865ZM51.3555 14.9446L50.4141 11.1219L48.9524 14.7957L51.3555 14.9446ZM54.9974 19.0404L52.4208 18.8666L51.8758 16.9304L48.1596 16.6822L47.3421 18.5191L44.7903 18.3453L49.6213 8.16799L51.5537 8.29211L54.9974 19.0404ZM43.8489 18.2957L41.4954 18.1467L41.7926 13.8524L38.1756 13.6042L37.8783 17.8737L35.5247 17.7248L36.2184 7.27437L38.572 7.42331L38.2995 11.4694L41.9165 11.7176L42.189 7.67154L44.5426 7.82047L43.8489 18.2957ZM29.8267 8.96232L29.6532 11.6928L30.7185 11.7673C31.8829 11.8418 32.5023 11.4198 32.5766 10.5013C32.6262 9.60771 32.0811 9.11126 30.9167 9.03679L29.8267 8.96232ZM29.2816 17.3028L26.9281 17.1538L27.6217 6.70345L31.2388 6.95168C32.4032 7.02615 33.3198 7.37366 33.9392 8.01906C34.6081 8.68927 34.9054 9.58289 34.8311 10.7496C34.7567 11.9162 34.3108 12.7602 33.518 13.3063C32.7996 13.7779 31.8334 13.9765 30.6194 13.902L29.5046 13.8276L29.2816 17.3028ZM25.2186 17.0297L19.5453 16.6574L20.239 6.20699L25.9123 6.57934L25.7637 8.68927L22.4439 8.46586L22.32 10.4517L25.5655 10.6751L25.4168 12.785L22.1714 12.5616L22.0227 14.6716L25.3425 14.895L25.2186 17.0297ZM17.6625 16.5333L15.3089 16.3843L15.5567 12.5616C14.8382 12.6609 14.3179 12.7106 13.9463 12.6857C11.6175 12.5368 10.5027 11.3701 10.6513 9.18572L10.8991 5.58643L13.1783 5.73536L12.9554 9.18572C12.881 10.1042 13.327 10.6006 14.2684 10.6751C14.7639 10.6999 15.2346 10.6751 15.7301 10.551L16.0274 5.93394L18.3809 6.08288L17.6625 16.5333Z" fill="white"/>
<path d="M92.3777 21.2837L17.0509 23.7252L17.6732 42.9997L93 40.5582L92.3777 21.2837Z" fill="white"/>
<path d="M84.1766 32.7818L82.8824 29.1119L81.808 32.8552L84.1766 32.7818ZM88.1324 36.4517L85.5684 36.5251L84.8603 34.6902L81.1731 34.8125L80.5383 36.6964L78.0232 36.7698L81.7836 26.3228L83.6882 26.2494L88.1324 36.4517ZM78.072 38.776L75.972 38.8494L75.8988 36.8432L68.9884 37.0634L68.6465 26.7387L70.9663 26.6653L71.2349 34.9104L74.629 34.8125L74.3604 26.5674L76.6802 26.4941L76.9488 34.7391L77.9255 34.7147L78.072 38.776ZM67.0838 37.1368L64.8129 37.2102L64.6175 30.8245L60.4908 37.357L58.5374 37.4304L58.1955 27.1057L60.5152 27.0323L60.7106 33.3446L64.8373 26.8855L66.7419 26.8121L67.0838 37.1368ZM56.6572 37.4793L54.3374 37.5527L54.2153 33.2956L50.6258 33.4179L50.7723 37.6506L48.4526 37.724L48.1107 27.4238L50.4305 27.3504L50.5526 31.3383L54.1421 31.216L54.02 27.2036L56.3397 27.1302L56.6572 37.4793ZM47.0607 29.5278L45.0096 29.6012L45.2782 37.8463L42.9585 37.9197L42.6899 29.6746L40.6631 29.748L40.5899 27.6684L46.9875 27.4727L47.0607 29.5278ZM37.3911 32.9531L37.2934 29.8459L36.2434 29.8704C34.9981 29.9193 34.4121 30.4331 34.4365 31.4607C34.4609 32.5127 35.0958 33.002 36.3411 32.9531H37.3911ZM39.8085 38.0176L37.4888 38.091L37.3667 34.4211L34.9004 38.1644L32.19 38.2622L34.876 34.5434C34.0946 34.4455 33.4353 34.1275 32.947 33.5403C32.4586 32.9531 32.19 32.2436 32.1656 31.4362C32.1411 30.3352 32.4586 29.4544 33.1179 28.8183C33.7528 28.2067 34.6318 27.8642 35.7306 27.8397L39.4422 27.7174L39.8085 38.0176ZM30.847 38.3112L28.5272 38.3846L28.2586 30.1395L24.8889 30.2374L25.1575 38.4824L22.8378 38.5558L22.4959 28.2311L30.5295 27.962L30.847 38.3112Z" fill="black"/>
</svg>
